<svg width="200" height="200" viewBox="0 0 200 200" fill="none" xmlns="http://www.w3.org/2000/svg">
<path d="M93.7207 57.9141C122.051 47.884 153.25 49.9525 180 63.6123V151.371C153.395 138.09 122.578 135.994 94.417 145.556L93.0537 146.029L87.7217 147.917C68.4731 154.732 47.8311 156.623 27.6738 153.428L26.7148 153.271L20 152.152V64.1797L26.3857 65.2451C46.8562 68.6569 67.8496 66.8951 87.457 60.1279L88.3896 59.8018L93.7207 57.9141Z" fill="#0050FF" stroke="black" stroke-width="2"/>
<path d="M103.479 70.8938L103.771 77.6775C106.195 77.9566 108.334 78.535 110.17 79.4346L110.171 79.4346C112.234 80.423 113.991 81.6825 115.428 83.2194L116.027 83.8592L115.47 84.5372L110.236 90.9122L109.534 91.7674L108.755 90.9829C107.316 89.5378 105.596 88.5415 103.575 87.9924L103.943 96.5274L104.591 96.6129L104.604 96.6143L105.391 96.7387C109.269 97.4054 112.327 98.7919 114.448 100.987L114.857 101.423C116.838 103.638 117.885 106.397 118.025 109.639C118.105 111.494 117.864 113.264 117.297 114.942L117.298 114.943C116.772 116.623 115.937 118.136 114.8 119.476L114.801 119.477C113.701 120.822 112.305 121.977 110.634 122.951L110.625 122.955C109.199 123.768 107.59 124.408 105.807 124.884L106.113 131.973L96.8259 132.373L96.5379 125.696C93.6001 125.504 90.9421 124.919 88.577 123.921L88.568 123.917L88.5581 123.912C86.1569 122.838 84.1325 121.402 82.5042 119.597L82.1844 119.23L81.6376 118.586L82.1805 117.94L87.4808 111.626L88.1734 110.8L88.9448 111.553C90.3032 112.877 91.7118 113.875 93.1674 114.565C94.3214 115.095 95.514 115.471 96.7467 115.694L96.3273 105.971L95.6796 105.887L95.6766 105.887C91.4134 105.321 88.0767 103.894 85.8094 101.499L85.8033 101.492C83.5672 99.0858 82.3853 96.1035 82.2344 92.6058C82.0686 88.7619 83.1146 85.5047 85.4345 82.9266L85.654 82.6885C87.7915 80.4309 90.7644 78.9383 94.487 78.1483L94.1914 71.2943L103.479 70.8938ZM104.745 115.13C105.45 114.794 105.952 114.373 106.294 113.889L106.298 113.884L106.402 113.731C106.904 112.957 107.156 111.983 107.103 110.75C107.05 109.536 106.734 108.78 106.289 108.319L106.198 108.23C105.81 107.874 105.227 107.549 104.407 107.283L104.745 115.13ZM95.5565 88.1007C94.7784 88.3865 94.2459 88.7547 93.9018 89.1682C93.4404 89.7718 93.1824 90.6191 93.2338 91.8107C93.2851 93.0003 93.6116 93.7456 94.0742 94.2074C94.4684 94.5394 95.0515 94.8512 95.8595 95.1245L95.5565 88.1007Z" fill="white" stroke="black" stroke-width="2"/>
</svg>
